<svg xmlns="http://www.w3.org/2000/svg" viewBox="0 0 113.4 153.68"><defs><style>.cls-1{fill:#656668;}.cls-2{fill:#f16667;}.cls-3{fill:#424242;}</style></defs><g id="Layer_2" data-name="Layer 2"><g id="Layer_1-2" data-name="Layer 1"><path class="cls-1" d="M34.27,130h-1V118.71h2.9c2.2,0,3.61,1.24,3.61,3.19a3.1,3.1,0,0,1-1.93,3,5.33,5.33,0,0,1-1.92.27,3.3,3.3,0,0,1-.39,0L40.65,130H39.33l-5.06-4.89Zm1.63-5.64c1.9,0,2.94-.84,2.94-2.44s-.92-2.37-2.7-2.37H34.27v4.81Z"/><path class="cls-1" d="M49.12,127.14a2.74,2.74,0,0,0,.32,1.29,2.12,2.12,0,0,0,1.9.93,2.3,2.3,0,0,0,2.53-2.3c0-1.12-.61-1.68-2.53-2.29a5.06,5.06,0,0,1-2.2-1.07,2.76,2.76,0,0,1-.87-2.09,3,3,0,0,1,3.19-3.1,2.92,2.92,0,0,1,3.12,3.12h-.93a2.32,2.32,0,0,0-.3-1.32,2.19,2.19,0,0,0-1.91-.94,2.13,2.13,0,0,0-2.2,2.19,1.78,1.78,0,0,0,.63,1.44,6.63,6.63,0,0,0,2.07.92,4.8,4.8,0,0,1,2.17,1.2,3,3,0,0,1,.69,1.94,3.14,3.14,0,0,1-3.37,3.17,3.05,3.05,0,0,1-2.46-.92,2.85,2.85,0,0,1-.75-1.9v-.27Z"/><path class="cls-1" d="M66.41,130.21l-1.29-1.42a5.23,5.23,0,0,1-3.63,1.44,5.71,5.71,0,0,1-4.05-1.8,5.93,5.93,0,0,1-1.36-4,5.77,5.77,0,0,1,1.63-4.32,5.38,5.38,0,0,1,3.78-1.58,5.5,5.5,0,0,1,4,1.76,6,6,0,0,1,1.44,4.09,5.76,5.76,0,0,1-1.18,3.75l1.35,1.46Zm-1.34-2.78a5.41,5.41,0,0,0,.82-3,5.07,5.07,0,0,0-1.52-3.9,4.37,4.37,0,0,0-2.88-1.14A4.43,4.43,0,0,0,58,121.15a5.36,5.36,0,0,0-.94,3.21c0,2.93,1.81,5,4.4,5a4.09,4.09,0,0,0,3-1.24l-.84-1,.61-.58Z"/><path class="cls-1" d="M69.71,125.5c0,1.64.23,2.46.88,3a3.3,3.3,0,0,0,4.39,0c.73-.68.92-1.29.92-3v-6.74h1v6.79c0,1.73-.24,2.56-1,3.39a4.09,4.09,0,0,1-3.14,1.34,4.15,4.15,0,0,1-3.23-1.43c-.67-.81-.86-1.52-.86-3.3v-6.79h1Z"/><path class="cls-1" d="M79.79,127.06l-1.21,3h-1l4.44-11.32h1L87.42,130H86.35l-1.1-3ZM82.55,120l-2.41,6.18h4.77Z"/><path class="cls-1" d="M89.7,130h-1V118.71h2.9c2.21,0,3.61,1.24,3.61,3.19a3.1,3.1,0,0,1-1.93,3,5.33,5.33,0,0,1-1.92.27,3.39,3.39,0,0,1-.39,0L96.07,130H94.75l-5-4.89Zm1.63-5.64c1.9,0,2.93-.84,2.93-2.44s-.92-2.37-2.7-2.37H89.7v4.81Z"/><path class="cls-1" d="M98.44,123.87h4.71v.86H98.44v4.43h4.71V130H97.47V118.71h5.68v.87H98.44Z"/><path class="cls-1" d="M105.24,118.71h2.9c3.24,0,5.26,2.11,5.26,5.43,0,3.71-2.12,5.89-5.72,5.89h-2.44Zm1,10.45h.52c2.28,0,3.14-.19,4-.86a4.91,4.91,0,0,0,1.67-4.16c0-3-1.53-4.56-4.33-4.56h-1.88Z"/><path class="cls-1" d="M43.23,141v.7a5.76,5.76,0,0,1-.59,2.71A5.1,5.1,0,0,1,38,147.2c-3.15,0-5.44-2.44-5.44-5.82s2.25-5.9,5.48-5.9a5,5,0,0,1,4,2l-.71.59a5.84,5.84,0,0,0-1-.93,4,4,0,0,0-2.39-.78c-2.53,0-4.46,2.15-4.46,5s1.9,5,4.38,5a4.55,4.55,0,0,0,3.63-1.94,4.23,4.23,0,0,0,.73-2.52H38V141Z"/><path class="cls-1" d="M47.54,147h-1V135.68h2.9c2.2,0,3.61,1.24,3.61,3.19a3.11,3.11,0,0,1-1.93,3,5.33,5.33,0,0,1-1.92.27,3.3,3.3,0,0,1-.39,0L53.92,147H52.6l-5.06-4.88Zm1.63-5.63c1.9,0,2.94-.84,2.94-2.44s-.92-2.37-2.7-2.37H47.54v4.81Z"/><path class="cls-1" d="M58.13,144l-1.2,3H56l4.45-11.31h1.05L65.77,147H64.7l-1.1-3ZM60.9,137l-2.41,6.17h4.77Z"/><path class="cls-1" d="M69.4,147h-1V135.68h2.74a4.65,4.65,0,0,1,3,.82A3.17,3.17,0,0,1,75.29,139a3.32,3.32,0,0,1-1.24,2.71,4.13,4.13,0,0,1-2.73.7H69.4Zm1.73-5.41a4.58,4.58,0,0,0,1.56-.2,2.37,2.37,0,0,0,1.65-2.32,2.34,2.34,0,0,0-1.73-2.33,6.69,6.69,0,0,0-1.8-.18H69.4v5Z"/><path class="cls-1" d="M79.06,147h-1V135.68h1v5.26H85.2v-5.26h1V147h-1V141.8H79.06Z"/><path class="cls-1" d="M91.1,147h-1V135.68h1Z"/><path class="cls-1" d="M103.85,145.18a4.13,4.13,0,0,1-1.41,1.32,5.27,5.27,0,0,1-2.67.7,5,5,0,0,1-3.83-1.65,6.51,6.51,0,0,1-1.49-4.2c0-3.38,2.25-5.87,5.31-5.87a5,5,0,0,1,4.09,2l-.72.57a5.65,5.65,0,0,0-1.1-1,4.06,4.06,0,0,0-2.27-.7c-2.48,0-4.31,2.12-4.31,5s1.85,5,4.36,5a4,4,0,0,0,3.32-1.77Z"/><path class="cls-1" d="M107.07,144.11a2.62,2.62,0,0,0,.33,1.29,2.1,2.1,0,0,0,1.9.93,2.3,2.3,0,0,0,2.52-2.3c0-1.12-.61-1.68-2.52-2.29a5.11,5.11,0,0,1-2.21-1.07,2.75,2.75,0,0,1-.86-2.09,3,3,0,0,1,3.18-3.1,2.92,2.92,0,0,1,3.12,3.12h-.93a2.24,2.24,0,0,0-.3-1.32,2.19,2.19,0,0,0-1.9-.94,2.13,2.13,0,0,0-2.21,2.19,1.78,1.78,0,0,0,.63,1.44,6.76,6.76,0,0,0,2.07.92,4.75,4.75,0,0,1,2.17,1.2,3,3,0,0,1,.7,1.94,3.15,3.15,0,0,1-3.38,3.17,3.05,3.05,0,0,1-2.46-.92,2.9,2.9,0,0,1-.75-1.9v-.27Z"/><path class="cls-2" d="M55.77,49.13C47.34,60.79,24.2,83.93,12.18,96.49c23.68-8.79,47.18-4.67,56.69,11.3C55.05,93.08,28.14,96.31,4.1,107.43c-4.3-.17-7.71-5.74,3.23-10C18.63,83.21,72.28,31,55.41,21c-14.17-8.07-34.09,6.28-40.18,19.56C.33,26.88,40.7,4.63,57.56,13.06,67.61,18.09,65.64,35.13,55.77,49.13Z"/><polygon class="cls-3" points="112.92 112.43 33.14 112.43 33.14 111.67 112.16 111.67 112.16 23.48 70.5 23.48 70.5 22.72 112.92 22.72 112.92 112.43"/><path class="cls-2" d="M28.17,96c.19-5.71.7-10.46.42-15.36-.58-9.87,1.13-20.24,2-29.85Q32.1,34.8,34.13,19c.48-3.78,1-7.72,0-11.56S30.24-.13,27.09,0a1.67,1.67,0,0,0-1.24.5,3.55,3.55,0,0,0-.46,2.32c.95,42.79-3.77,85.57,1.5,128.91.89,7.35,2.07,14.68,3.61,22a364,364,0,0,1-2.25-49.27"/></g></g></svg>