<?xml version="1.0" standalone="no"?>
<!DOCTYPE svg PUBLIC "-//W3C//DTD SVG 20010904//EN"
 "http://www.w3.org/TR/2001/REC-SVG-20010904/DTD/svg10.dtd">
<svg version="1.0" xmlns="http://www.w3.org/2000/svg"
 width="868.000000pt" height="868.000000pt" viewBox="0 0 868.000000 868.000000"
 preserveAspectRatio="xMidYMid meet">
<metadata>
Created by potrace 1.11, written by Peter Selinger 2001-2013
</metadata>
<g transform="translate(0.000000,868.000000) scale(0.100000,-0.100000)"
fill="#000000" stroke="none">
<path d="M2635 8673 c-11 -2 -30 -19 -43 -38 -22 -34 -22 -41 -21 -297 0 -185
4 -267 12 -277 10 -12 9 -13 -3 -6 -13 7 -13 6 -2 -7 10 -13 10 -17 0 -22 -10
-5 -10 -7 0 -12 6 -3 9 -11 5 -17 -9 -14 -11 -297 -3 -292 3 2 7 -6 7 -18 2
-17 0 -19 -7 -7 -8 13 -10 12 -10 -3 0 -16 -127 -107 -150 -107 -6 0 -13 -7
-16 -15 -4 -8 -10 -12 -15 -9 -5 3 -9 1 -9 -5 0 -6 -11 -13 -25 -17 -14 -3
-22 -10 -19 -15 3 -5 1 -9 -5 -9 -9 0 -29 -15 -88 -67 -14 -13 -30 -23 -34
-23 -5 0 -9 -7 -9 -16 0 -8 -4 -13 -9 -10 -10 6 -171 -149 -171 -165 0 -5 -8
-9 -17 -9 -15 0 -16 -2 -3 -10 9 -6 11 -10 3 -10 -7 0 -19 -12 -27 -27 -8 -16
-15 -23 -16 -18 0 10 -17 -15 -47 -75 -10 -19 -22 -38 -28 -42 -5 -4 -10 -11
-11 -15 -2 -23 -17 -63 -23 -63 -4 0 -8 -6 -9 -12 0 -7 -4 -29 -9 -48 -9 -42
-10 -203 -1 -245 3 -16 13 -43 22 -60 9 -16 16 -36 16 -43 0 -7 7 -15 15 -18
8 -4 13 -10 10 -14 -2 -4 8 -20 22 -36 15 -16 28 -33 28 -39 1 -5 6 -9 12 -8
7 2 15 -6 18 -17 10 -31 32 -24 46 15 7 19 16 35 20 35 6 0 19 30 23 53 0 4 6
11 12 15 5 4 16 22 23 40 8 17 17 32 22 32 4 0 10 9 14 19 3 11 19 34 35 53
17 18 35 45 42 60 7 15 16 24 20 22 4 -3 8 0 8 6 0 6 12 22 26 35 15 14 24 25
20 25 -4 0 11 18 33 40 23 23 41 45 41 50 0 6 3 10 8 10 7 0 38 29 97 92 19
20 35 35 35 32 0 -2 16 13 35 33 l36 38 -6 -375 c-4 -206 -8 -463 -10 -570 -2
-107 -4 -264 -6 -347 -1 -86 -6 -153 -11 -153 -5 0 -6 -6 -1 -12 4 -7 9 -22
10 -33 2 -15 1 -16 -6 -6 -6 9 -8 4 -8 -17 1 -17 4 -29 7 -27 3 2 6 -5 6 -15
0 -10 -4 -16 -8 -14 -4 3 -8 -79 -9 -183 -1 -103 -3 -276 -4 -383 -2 -107 -5
-311 -6 -453 -3 -221 -5 -260 -19 -267 -9 -6 -10 -10 -3 -10 7 0 -12 -25 -42
-55 -30 -31 -55 -60 -55 -66 0 -6 -5 -7 -10 -4 -6 3 -13 -2 -17 -12 -4 -10
-29 -40 -56 -68 -27 -27 -56 -62 -65 -77 -9 -16 -22 -28 -29 -28 -7 0 -13 -4
-13 -8 0 -5 -17 -27 -37 -49 -130 -140 -151 -163 -157 -178 -3 -9 -10 -13 -16
-10 -5 3 -10 0 -10 -8 0 -7 -15 -27 -33 -43 -18 -16 -33 -31 -33 -34 1 -3 -14
-19 -31 -36 -18 -17 -33 -34 -33 -37 0 -3 -17 -23 -37 -45 -112 -118 -152
-162 -146 -162 4 0 -10 -16 -30 -35 -20 -19 -37 -39 -37 -43 0 -23 -73 -83
-115 -93 -25 -6 -45 -15 -45 -19 0 -4 -18 -13 -39 -20 -22 -7 -42 -19 -45 -26
-3 -8 -10 -14 -16 -14 -6 0 -18 -6 -25 -12 -8 -7 -27 -22 -41 -33 -15 -11 -40
-33 -56 -49 -15 -15 -28 -25 -28 -20 0 17 -52 -93 -57 -120 -6 -35 5 -118 16
-112 3 3 13 -9 20 -25 7 -16 16 -27 21 -24 4 3 10 -1 13 -9 6 -14 49 -38 97
-52 39 -12 78 -6 135 21 28 14 57 25 63 25 7 0 12 5 12 10 0 6 7 10 17 10 9 0
40 11 69 25 30 14 67 28 84 31 16 4 30 10 30 14 0 5 15 12 33 15 17 4 52 16
76 27 24 11 51 21 61 23 10 2 26 8 36 14 32 17 171 61 196 61 14 0 19 3 11 8
-7 4 16 13 54 20 37 7 72 17 77 21 13 10 56 21 106 28 19 3 37 9 40 13 7 11
109 29 114 21 2 -3 5 -71 5 -151 1 -91 6 -147 12 -151 8 -4 8 -9 1 -13 -10 -6
-10 -18 1 -46 3 -8 8 -91 12 -185 3 -93 8 -213 11 -265 3 -52 6 -113 8 -135 1
-22 6 -46 10 -54 7 -10 5 -12 -5 -6 -11 7 -12 6 -3 -6 6 -8 14 -63 18 -124 12
-212 18 -280 28 -299 7 -13 7 -16 -1 -12 -6 4 -11 2 -11 -3 0 -6 4 -11 8 -11
5 0 9 -6 9 -12 4 -96 16 -203 26 -228 3 -8 8 -49 11 -90 4 -62 13 -149 20
-195 1 -5 6 -16 10 -24 7 -10 5 -12 -3 -6 -10 6 -11 3 -3 -12 6 -10 13 -48 17
-83 12 -129 16 -155 26 -166 5 -7 9 -16 7 -20 -1 -5 1 -38 6 -74 12 -103 17
-134 23 -150 9 -21 12 -38 18 -98 3 -29 9 -71 14 -94 6 -23 7 -46 4 -52 -3 -5
-1 -6 4 -3 7 4 15 -29 23 -91 14 -111 28 -151 27 -74 -1 29 -4 52 -8 52 -3 0
-6 6 -6 13 0 15 -11 163 -20 267 -3 41 -5 85 -5 98 1 13 -2 21 -6 18 -5 -3 -9
1 -9 9 0 8 3 12 7 10 4 -2 7 2 7 10 0 8 -4 12 -9 9 -4 -3 -7 5 -7 18 1 21 -1
67 -16 308 -2 36 -4 91 -4 123 -1 41 -4 56 -13 51 -6 -4 -8 -3 -5 3 10 16 16
64 8 58 -5 -2 -9 26 -10 63 -2 37 -4 101 -6 142 -2 41 -7 264 -11 495 -4 286
-10 425 -18 434 -8 11 -8 13 2 7 9 -6 12 26 12 146 0 109 -4 158 -12 167 -10
11 -10 12 -1 7 10 -5 12 46 10 234 -2 192 1 240 11 240 7 0 11 4 8 8 -3 5 0 9
7 9 57 4 144 17 152 23 10 8 71 16 210 26 44 4 83 11 86 16 4 6 8 5 11 -3 4
-12 7 -12 21 0 14 11 20 11 34 0 11 -10 14 -10 9 -1 -5 9 8 12 56 12 35 1 95
1 133 2 201 2 266 -2 259 -14 -6 -10 -4 -10 7 0 16 15 49 16 49 1 0 -8 6 -7
17 2 11 10 14 10 9 2 -5 -10 5 -13 41 -14 26 0 60 -3 76 -5 15 -2 39 -6 55 -8
15 -2 40 -5 55 -5 20 -1 26 -5 21 -13 -5 -8 0 -7 11 2 10 8 16 10 12 4 -6 -11
65 -30 100 -27 7 0 11 -3 8 -7 -3 -4 22 -13 55 -19 33 -7 72 -18 87 -26 15 -8
35 -15 43 -15 8 0 27 -6 42 -14 14 -8 43 -19 65 -26 21 -7 45 -18 53 -25 17
-14 61 -30 73 -27 5 1 6 -2 3 -7 -5 -7 42 -30 64 -32 3 0 9 -7 13 -15 4 -8 15
-14 22 -14 8 0 15 -5 15 -10 0 -6 11 -15 25 -20 14 -5 25 -13 25 -17 0 -5 14
-14 30 -21 17 -8 27 -18 24 -24 -4 -6 -3 -8 2 -5 5 3 27 -10 49 -29 22 -19 43
-34 48 -34 4 0 5 -4 2 -10 -3 -5 1 -10 9 -10 9 0 23 -11 32 -25 17 -25 34 -33
34 -15 0 6 -9 18 -19 27 -11 9 -18 20 -15 24 3 5 -4 14 -16 21 -11 7 -20 18
-20 24 0 6 -14 25 -30 43 -17 17 -28 31 -25 31 3 0 -10 15 -30 32 -19 18 -35
39 -35 45 0 7 -6 13 -14 13 -8 0 -18 9 -21 20 -3 11 -10 20 -15 20 -5 0 -29
19 -54 43 -58 55 -101 87 -116 87 -6 0 -9 4 -5 9 3 5 -4 12 -15 16 -11 3 -20
10 -20 14 0 5 -13 14 -30 21 -16 7 -30 15 -30 19 0 3 -30 22 -68 41 -37 19
-70 39 -74 44 -3 5 -14 11 -23 12 -9 1 -26 9 -38 17 -25 16 -98 42 -109 39 -5
-1 -8 2 -8 7 0 15 -128 60 -170 61 -18 0 -21 3 -11 9 9 6 -10 13 -58 21 -39 6
-73 15 -76 20 -6 9 -100 25 -171 29 -17 1 -23 5 -18 14 5 7 0 6 -11 -3 -11 -9
-16 -10 -11 -2 5 8 -2 12 -26 13 -18 0 -42 2 -53 4 -29 6 -160 13 -233 14 -48
1 -61 4 -56 14 6 9 4 9 -7 -1 -17 -16 -63 -16 -53 0 5 7 3 8 -7 2 -22 -13
-120 -14 -112 0 5 8 3 8 -8 0 -8 -7 -78 -14 -166 -18 -84 -3 -159 -9 -168 -12
-15 -6 -19 3 -16 41 0 11 3 169 5 351 l4 332 50 51 c28 28 47 51 44 51 -4 1 4
7 18 15 14 7 24 17 22 20 -2 4 8 15 23 25 15 10 26 21 24 26 -1 5 9 15 22 21
13 7 21 13 17 13 -9 0 32 47 85 98 22 20 46 46 55 56 10 10 36 39 60 63 23 24
42 50 42 56 0 7 4 6 10 -3 8 -13 10 -12 10 2 0 10 38 56 85 103 47 47 83 85
81 85 -3 0 22 28 55 61 32 34 59 66 59 70 0 5 7 9 15 9 8 0 15 4 15 10 0 5 25
34 55 65 30 31 55 61 55 66 0 5 5 9 10 9 6 0 10 7 10 15 0 8 7 15 15 15 8 0
15 5 15 11 0 7 17 28 38 47 20 20 36 39 35 44 -2 4 4 8 12 8 8 0 15 4 15 9 0
5 20 31 45 58 25 26 45 51 45 54 0 3 17 24 38 46 34 38 76 85 137 158 14 17
25 34 25 38 0 5 5 5 12 1 6 -4 8 -3 5 3 -3 5 9 26 28 46 18 19 31 38 28 40 -2
3 4 10 15 16 11 6 22 21 26 34 3 13 16 29 29 36 13 7 30 28 37 47 8 19 18 34
22 34 5 0 13 11 18 25 5 14 13 25 18 25 4 0 14 16 22 35 8 19 17 35 21 35 3 0
13 15 20 33 7 17 18 37 24 44 26 31 32 40 45 73 8 19 19 38 24 42 6 4 11 11
12 15 0 4 10 28 21 53 12 25 25 58 29 74 4 16 10 23 14 17 3 -7 12 13 19 44 7
30 16 53 20 51 4 -3 8 0 9 7 4 38 29 117 35 111 4 -4 8 -2 8 4 1 7 3 17 4 22
1 6 3 22 4 38 1 19 4 23 10 14 5 -9 11 5 16 40 5 29 9 56 10 61 2 4 3 16 4 28
0 11 6 17 11 14 6 -4 10 -3 8 2 -1 4 1 31 5 58 14 99 20 150 20 165 0 8 5 18
11 23 8 5 6 10 -4 17 -12 8 -12 10 -1 10 11 0 11 3 0 17 -10 11 -10 14 -1 9 9
-5 12 3 12 31 0 22 -6 45 -12 52 -10 11 -10 13 0 7 9 -5 12 6 12 44 0 38 -3
49 -12 44 -10 -6 -10 -4 0 8 7 9 9 18 4 20 -5 1 -12 35 -16 73 -6 69 -22 150
-26 130 -1 -5 -8 15 -16 45 -8 30 -19 57 -24 58 -6 2 -10 9 -10 16 0 22 -81
129 -134 178 -28 26 -58 54 -66 62 -8 8 -27 17 -43 21 -15 4 -25 11 -22 15 2
4 -16 13 -40 20 -25 7 -48 16 -50 21 -3 4 -31 13 -63 19 -31 7 -62 16 -67 20
-28 23 -388 33 -550 16 -44 -4 -88 -9 -97 -9 -9 -1 -14 -5 -12 -9 3 -4 -5 -8
-18 -7 -13 0 -36 -2 -53 -5 -60 -11 -80 -15 -105 -15 -20 -1 -22 -3 -10 -11
12 -8 10 -10 -11 -10 -39 0 -139 -22 -134 -29 2 -4 -17 -12 -42 -17 -32 -8
-46 -8 -48 0 -2 6 -6 67 -8 136 -5 127 -8 151 -17 160 -3 3 -11 32 -18 64 -6
33 -15 62 -19 65 -5 3 -9 11 -10 16 -8 32 -30 84 -35 79 -3 -3 -11 11 -18 30
-6 20 -16 34 -21 31 -5 -4 -9 1 -9 9 0 9 -9 21 -20 28 -11 7 -20 17 -20 23 0
17 -108 95 -131 95 -10 0 -19 4 -21 9 -3 10 -90 20 -123 14z m1305 -1068 c19
-4 46 -7 60 -6 17 0 21 -2 12 -7 -8 -6 13 -13 58 -21 38 -7 68 -17 65 -21 -3
-5 9 -12 27 -15 51 -12 188 -93 188 -112 0 -7 5 -13 10 -13 6 0 10 -6 10 -14
0 -8 7 -16 15 -20 8 -3 15 -9 14 -13 -2 -15 13 -53 21 -53 5 0 12 -26 16 -57
3 -32 10 -62 14 -68 14 -20 -15 -225 -34 -237 -7 -5 -6 -8 4 -8 10 0 11 -3 4
-8 -10 -6 -34 -79 -36 -109 -1 -7 -5 -13 -8 -13 -8 0 -35 -89 -31 -103 1 -5
-2 -6 -7 -3 -5 3 -15 -13 -21 -36 -7 -23 -19 -48 -27 -55 -8 -8 -14 -23 -14
-33 0 -10 -7 -26 -16 -34 -14 -14 -21 -31 -23 -59 -1 -5 -5 -6 -10 -3 -4 3
-13 -13 -20 -35 -7 -22 -16 -37 -21 -34 -6 4 -10 -1 -10 -10 0 -16 -18 -51
-37 -72 -6 -7 -15 -23 -19 -35 -3 -12 -10 -26 -15 -32 -17 -21 -55 -81 -62
-98 -3 -10 -11 -18 -16 -18 -5 0 -12 -11 -15 -25 -4 -14 -12 -24 -18 -22 -7 1
-13 -2 -13 -8 -2 -26 -17 -54 -31 -59 -8 -3 -13 -10 -10 -15 3 -5 -1 -14 -9
-21 -8 -7 -12 -17 -8 -23 3 -5 1 -7 -5 -3 -6 3 -16 -7 -24 -24 -7 -16 -16 -30
-21 -30 -4 0 -12 -11 -17 -25 -5 -14 -14 -25 -19 -25 -5 0 -13 -9 -16 -20 -3
-11 -14 -27 -23 -37 -9 -9 -17 -19 -17 -22 0 -3 -9 -16 -20 -28 -34 -37 -45
-51 -57 -77 -6 -14 -14 -23 -19 -21 -4 3 -10 -3 -14 -14 -3 -10 -17 -31 -30
-47 -14 -16 -25 -35 -25 -41 0 -7 -5 -13 -10 -13 -6 0 -15 -11 -22 -25 -6 -13
-15 -22 -19 -19 -5 3 -9 1 -9 -4 0 -5 -10 -20 -22 -34 -42 -47 -73 -88 -72
-96 1 -4 -7 -13 -17 -20 -11 -7 -19 -20 -19 -28 0 -8 -4 -13 -9 -9 -5 3 -12
-4 -16 -15 -3 -11 -15 -25 -26 -31 -11 -5 -17 -14 -15 -18 3 -4 -6 -18 -19
-29 -14 -12 -25 -26 -25 -32 0 -5 -6 -9 -12 -8 -7 2 -12 -3 -10 -9 1 -7 -2
-13 -8 -13 -5 0 -10 -6 -10 -13 0 -7 -9 -18 -21 -25 -12 -7 -19 -16 -16 -19 3
-2 -11 -21 -32 -41 -21 -20 -40 -45 -44 -55 -4 -10 -11 -15 -17 -12 -5 3 -10
-1 -10 -9 0 -8 -10 -22 -22 -30 -12 -9 -19 -16 -14 -16 5 0 -2 -10 -15 -23
-38 -38 -79 -88 -79 -99 0 -5 -4 -7 -9 -3 -5 3 -12 -4 -16 -15 -3 -11 -15 -25
-26 -30 -10 -6 -19 -15 -19 -20 0 -10 -4 -15 -77 -93 -24 -25 -43 -48 -43 -51
0 -5 -60 -66 -65 -66 -1 0 -1 28 0 63 2 34 4 93 4 130 1 47 4 66 12 61 8 -5 8
-1 0 14 -6 11 -7 22 -2 24 5 2 12 59 16 128 4 69 8 141 11 160 2 19 4 54 5 77
1 29 5 40 13 36 6 -4 4 2 -4 12 -9 11 -10 16 -2 11 9 -5 12 5 13 41 0 26 2 59
4 73 6 40 14 151 14 198 1 32 4 41 14 36 7 -5 6 0 -3 11 -8 10 -10 16 -3 12 7
-5 12 -1 11 10 -2 58 16 239 25 244 5 4 5 9 -2 14 -8 4 -9 11 -3 18 9 11 13
44 28 277 4 52 12 101 18 109 7 10 7 13 0 8 -6 -3 -11 0 -11 8 0 8 4 12 9 9 4
-3 8 16 9 43 0 26 2 59 4 73 1 14 6 70 10 125 4 55 11 105 15 110 4 6 11 51
14 100 11 177 18 240 26 250 4 6 10 53 14 105 13 187 18 225 29 239 10 12 9
13 -3 6 -12 -7 -13 -6 -3 6 6 8 13 25 15 39 2 19 12 27 41 35 21 6 36 13 33
16 -3 3 17 12 44 19 28 8 50 17 50 21 0 4 25 13 55 20 30 7 55 15 55 19 0 4
30 12 67 19 37 7 72 16 78 21 6 5 51 12 100 16 50 3 91 8 93 9 6 6 238 -3 272
-10z m-1424 -3931 l2 -244 -27 -6 c-14 -3 -33 -8 -41 -12 -8 -3 -22 -7 -30 -8
-8 -1 -31 -5 -50 -8 -19 -4 -48 -9 -65 -12 -16 -3 -34 -9 -40 -13 -5 -5 -45
-15 -87 -21 -43 -7 -75 -16 -73 -20 3 -4 -15 -11 -40 -15 -25 -3 -43 -10 -40
-14 2 -5 -14 -12 -37 -15 -23 -4 -56 -13 -72 -20 -78 -34 -82 -30 -27 24 21
21 36 41 33 44 -3 3 -1 6 5 6 12 0 133 118 133 131 0 4 17 20 37 34 21 14 31
25 23 26 -11 0 -11 2 2 7 9 4 29 22 43 41 14 19 25 28 25 20 0 -8 6 -3 13 11
8 14 19 24 26 22 7 -1 10 2 6 8 -3 5 1 13 9 16 9 3 16 10 16 15 0 12 48 58 54
51 3 -3 6 0 6 6 0 6 39 49 86 96 48 48 83 86 78 86 -5 0 -2 4 6 10 8 5 17 7
19 4 3 -3 6 -115 7 -250z"/>
<path d="M5120 7367 l0 -22 1173 0 1172 0 0 -2487 0 -2486 -605 0 c-438 0
-609 3 -619 12 -11 8 -13 8 -8 0 10 -17 -131 -18 -151 -2 -9 8 -13 8 -9 2 9
-16 -133 -16 -152 -1 -10 8 -13 9 -8 1 10 -17 -131 -18 -151 -2 -9 8 -13 8 -9
2 9 -16 -133 -16 -152 -1 -10 8 -13 9 -8 1 10 -17 -131 -18 -151 -2 -9 8 -13
8 -9 2 9 -16 -133 -16 -152 -1 -10 8 -13 9 -8 1 10 -17 -131 -18 -151 -2 -9 8
-13 8 -9 2 9 -16 -133 -16 -152 -1 -10 8 -13 9 -8 1 10 -17 -131 -18 -151 -2
-9 8 -13 8 -9 2 9 -16 -133 -16 -152 -1 -10 8 -13 9 -8 1 10 -17 -131 -18
-151 -2 -9 8 -13 8 -9 2 9 -16 -133 -16 -152 -1 -10 8 -13 9 -8 1 10 -17 -131
-18 -151 -2 -9 8 -13 8 -9 2 9 -16 -133 -16 -152 -1 -11 9 -13 9 -8 0 5 -8
-114 -11 -485 -11 l-493 1 -3 -22 c-2 -15 2 -21 15 -22 23 -1 4418 -1 4456 0
l27 1 0 2530 0 2530 -1195 0 -1195 0 0 -23z"/>
<path d="M4015 1991 c-2 -5 -20 -11 -40 -14 -31 -5 -46 -16 -97 -76 -7 -9 -13
-44 -13 -83 0 -56 3 -70 20 -82 11 -9 16 -16 11 -16 -5 0 -3 -7 4 -15 7 -8 17
-12 23 -8 6 3 7 1 3 -6 -4 -6 0 -14 11 -17 10 -4 36 -15 58 -25 22 -10 50 -20
63 -22 33 -5 99 -49 109 -72 8 -19 8 -28 4 -81 -2 -30 -41 -72 -76 -80 -16 -4
-36 -11 -43 -17 -9 -7 -16 -8 -20 0 -4 5 -24 13 -45 17 -30 6 -41 14 -51 37
-7 16 -16 26 -20 22 -4 -5 -7 -3 -6 2 8 37 -1 55 -26 55 -26 0 -27 -1 -20 -47
3 -26 10 -49 15 -52 4 -4 13 -16 19 -28 7 -12 26 -24 43 -28 23 -5 28 -9 18
-16 -9 -5 20 -9 74 -9 56 0 86 4 82 10 -3 6 3 10 14 10 28 0 78 50 86 85 4 17
11 40 17 51 8 16 5 36 -12 83 -13 33 -26 58 -31 56 -4 -3 -14 3 -21 13 -7 11
-31 25 -53 32 -22 7 -44 16 -50 20 -5 4 -23 10 -38 14 -49 12 -97 57 -97 92 0
17 -4 23 -12 18 -10 -6 -10 -4 -2 7 7 8 15 29 19 47 4 18 14 36 23 39 10 4 20
10 23 15 12 19 146 17 134 -2 -2 -4 7 -13 20 -20 14 -7 25 -20 26 -29 2 -54
10 -65 39 -56 19 6 21 12 15 43 -10 55 -51 110 -88 118 -18 3 -36 9 -42 12
-16 10 -64 11 -70 3z"/>
<path d="M4555 1990 c-3 -5 -14 -10 -24 -10 -47 0 -181 -101 -181 -137 0 -7
-4 -13 -9 -13 -5 0 -12 -15 -16 -32 -4 -18 -9 -40 -11 -48 -9 -33 -4 -174 8
-213 6 -23 11 -46 10 -50 -2 -5 2 -6 8 -2 5 3 11 1 11 -4 1 -6 2 -15 3 -19 2
-15 61 -72 73 -72 7 0 13 -4 13 -9 0 -9 23 -20 45 -21 6 -1 19 -7 31 -15 21
-14 55 -18 137 -16 27 1 46 5 43 10 -3 5 9 12 28 15 18 4 44 15 56 26 25 22
26 22 55 10 11 -5 15 -9 8 -9 -11 -1 31 -51 43 -51 3 0 14 8 25 19 22 20 21
21 -31 64 -18 15 -21 25 -16 50 3 17 11 34 16 37 10 6 21 40 23 72 1 9 5 14
10 11 4 -3 7 34 6 81 -1 47 -5 83 -9 81 -4 -3 -11 15 -15 40 -3 25 -10 43 -15
40 -4 -3 -11 6 -14 19 -5 20 -42 63 -89 102 -17 14 -134 50 -170 52 -20 1 -26
-2 -21 -11 6 -9 4 -9 -8 1 -11 9 -18 10 -23 2z m145 -68 c3 -4 18 -14 34 -22
43 -22 73 -54 86 -94 6 -19 16 -36 21 -38 6 -2 11 -37 11 -78 2 -110 -1 -142
-11 -136 -5 3 -11 -8 -14 -24 -5 -23 -10 -28 -24 -23 -10 4 -23 14 -30 22 -10
14 -13 14 -26 -4 -16 -20 -7 -55 13 -55 18 0 10 -21 -16 -45 -23 -22 -46 -30
-106 -39 -10 -1 -21 -5 -24 -9 -4 -4 -12 -7 -18 -7 -6 0 -4 5 4 10 11 7 6 10
-20 10 -41 0 -113 23 -103 33 3 4 2 7 -3 7 -18 0 -60 46 -74 80 -8 19 -18 38
-23 41 -11 7 -17 146 -10 196 3 18 9 30 14 27 5 -3 9 2 9 11 0 19 21 57 38 68
7 5 20 17 30 27 9 10 29 21 44 25 16 4 26 11 23 15 -11 18 161 20 175 2z"/>
<path d="M3020 1671 c0 -303 2 -341 22 -341 5 0 6 6 2 13 -5 8 -2 8 9 -2 16
-12 17 -9 18 40 1 30 1 60 0 68 -2 8 2 10 11 5 10 -6 11 -5 1 7 -15 19 -15
101 1 92 6 -3 6 0 -1 8 -15 15 -17 39 -4 39 5 0 32 -22 60 -49 27 -27 53 -46
55 -43 3 2 10 -7 16 -22 5 -15 14 -25 19 -21 5 3 12 -4 16 -15 3 -11 10 -20
14 -20 4 0 31 -22 60 -50 30 -28 63 -50 75 -50 17 0 18 2 6 10 -13 9 -13 10 1
10 8 0 20 -5 27 -12 7 -7 12 -9 12 -6 0 9 -93 103 -100 101 -3 0 -11 5 -18 13
-7 8 -11 14 -8 14 3 0 -6 11 -20 25 -14 14 -27 25 -29 25 -8 0 -60 55 -58 62
2 4 -6 9 -16 13 -11 3 -22 12 -25 20 -4 12 4 15 37 15 23 0 57 4 74 9 39 11
93 64 93 92 0 11 5 17 10 14 6 -4 10 20 10 65 0 45 -4 69 -10 65 -5 -3 -10 3
-10 13 0 26 -57 81 -95 91 -16 4 -81 9 -142 10 l-113 2 0 -310z m209 247 c11
-11 12 -10 6 2 -6 10 -1 8 13 -4 12 -11 22 -15 22 -10 0 5 13 -6 29 -24 26
-29 29 -40 27 -89 -1 -34 -6 -58 -14 -61 -6 -2 -12 -10 -12 -18 0 -8 -5 -14
-11 -14 -5 0 -8 -4 -5 -9 9 -14 -41 -24 -129 -26 l-81 -2 -2 29 c-2 21 1 27
10 22 10 -6 11 -4 1 7 -7 7 -13 19 -13 27 0 8 5 10 13 6 9 -6 9 -5 0 8 -16 19
-15 100 1 91 6 -3 5 0 -1 8 -7 7 -13 26 -13 41 l0 28 73 0 c45 0 78 -5 86 -12z"/>
<path d="M5016 1767 c2 -301 3 -315 14 -297 8 12 10 11 10 -6 0 -11 3 -24 8
-28 4 -4 7 -11 7 -15 0 -15 61 -63 87 -68 15 -3 28 -9 28 -14 0 -12 147 -12
155 0 3 5 19 12 35 16 16 4 34 14 40 23 5 9 10 13 10 7 0 -12 53 64 58 85 2 8
6 126 8 263 l3 247 -28 0 -29 0 0 -241 c-1 -213 -3 -243 -18 -260 -9 -10 -13
-19 -8 -19 12 0 -37 -44 -61 -55 -11 -4 -33 -10 -50 -12 -16 -3 -33 -10 -37
-16 -6 -9 -8 -9 -8 1 0 6 -11 12 -25 12 -40 0 -117 45 -121 70 0 3 -4 21 -7
40 -4 19 -8 46 -10 60 -1 14 -6 31 -11 39 -6 10 -5 12 2 7 17 -10 16 56 0 73
-10 11 -10 13 0 7 7 -4 12 -2 12 6 0 8 -6 20 -12 27 -10 11 -10 13 0 7 8 -5
12 0 12 16 0 13 -6 30 -12 37 -11 11 -10 12 0 7 15 -9 13 29 -2 53 -6 10 -5
12 2 7 17 -10 16 56 0 73 -10 11 -10 13 0 7 7 -4 12 -2 12 6 0 8 -6 20 -12 27
-10 11 -10 13 0 7 6 -4 12 -2 12 3 0 6 -15 11 -32 11 l-33 0 1 -213z"/>
<path d="M5762 1967 c-6 -7 -16 -34 -22 -60 -7 -26 -16 -47 -20 -47 -4 0 -11
-15 -14 -33 -3 -18 -15 -49 -26 -69 -11 -20 -22 -49 -24 -64 -3 -15 -9 -30
-14 -33 -5 -3 -15 -30 -22 -58 -8 -29 -17 -53 -22 -53 -4 0 -8 -5 -8 -12 0 -6
-11 -39 -24 -72 -14 -34 -26 -68 -28 -76 -2 -8 -9 -21 -16 -28 -17 -19 -9 -28
25 -27 22 0 30 6 38 30 5 17 13 32 16 35 9 8 25 57 28 86 0 8 6 12 11 9 6 -3
10 -2 10 3 0 11 280 15 297 4 7 -5 14 -17 16 -27 14 -65 20 -84 29 -79 5 3 9
0 7 -7 -3 -29 2 -39 19 -39 13 0 14 -2 4 -9 -8 -5 0 -7 21 -7 32 1 34 3 26 23
-5 13 -5 23 -1 23 4 0 1 4 -6 9 -13 8 -19 27 -21 61 -1 12 -3 12 -10 2 -5 -9
-10 1 -15 30 -4 24 -7 45 -7 48 0 3 -7 12 -14 20 -8 9 -20 39 -26 68 -7 29
-16 52 -20 52 -4 0 -13 25 -20 55 -7 30 -15 52 -19 50 -4 -3 -11 12 -15 33 -3
20 -14 53 -24 72 -10 20 -22 50 -26 68 -6 28 -11 32 -40 32 -18 0 -37 -6 -43
-13z m54 -117 c4 -22 10 -38 13 -35 7 4 36 -83 33 -97 -1 -5 2 -8 7 -8 7 0 20
-39 33 -97 1 -5 8 -14 15 -22 31 -31 -7 -36 -221 -32 -38 1 -38 1 -23 25 9 13
21 45 28 70 6 25 15 46 19 46 4 0 13 25 20 55 7 30 16 55 20 55 4 0 12 18 19
40 15 51 29 51 37 0z"/>
<path d="M6149 1963 c0 -26 0 -561 0 -600 1 -18 6 -33 12 -33 5 0 7 6 3 13 -6
9 -5 9 8 0 8 -7 18 -10 21 -6 4 3 7 63 7 133 0 97 3 127 13 127 12 0 45 -28
40 -34 -2 -2 -2 -3 0 -2 1 0 56 -52 121 -115 82 -80 123 -113 130 -106 5 5 15
10 21 10 5 0 3 -5 -5 -11 -12 -8 -12 -10 4 -7 29 5 30 23 0 49 -14 13 -36 33
-48 44 -11 11 -24 19 -28 17 -5 -1 -8 3 -8 9 0 7 -36 46 -80 88 l-80 76 33 1
c92 2 162 43 187 109 17 44 9 182 -10 170 -4 -2 -12 7 -18 20 -7 14 -19 25
-27 25 -9 0 -13 5 -10 10 3 6 3 10 -2 11 -4 0 -17 3 -28 6 -11 3 -73 8 -137
10 -109 4 -118 3 -119 -14z m205 -45 c-5 -8 -1 -8 12 2 10 8 16 10 11 5 -4 -5
6 -14 22 -21 19 -8 33 -23 37 -38 3 -14 9 -24 13 -21 4 2 8 -18 8 -45 0 -27
-4 -47 -9 -44 -4 3 -8 -2 -8 -10 0 -9 -9 -25 -20 -36 -13 -13 -15 -20 -7 -21
39 -3 -61 -21 -130 -24 l-83 -3 0 134 0 134 81 0 c61 0 78 -3 73 -12z"/>
<path d="M6637 1973 c-11 -11 -8 -48 6 -62 10 -11 10 -13 0 -7 -9 5 -13 -3
-13 -29 0 -26 4 -34 13 -29 10 6 10 4 0 -7 -8 -7 -13 -40 -13 -77 0 -48 3 -61
13 -56 9 6 9 4 1 -7 -17 -20 -18 -247 -1 -267 9 -13 9 -14 0 -8 -10 5 -13 -5
-13 -39 0 -25 4 -44 9 -41 5 4 12 0 15 -6 5 -10 7 -10 12 0 3 6 10 12 15 12 6
0 8 -3 5 -8 -6 -9 175 -9 191 1 6 4 14 1 17 -5 5 -10 7 -10 12 0 5 10 9 10 21
0 12 -10 18 -9 28 6 8 10 11 24 8 32 -6 16 -14 16 -159 14 -75 -1 -103 2 -106
12 -4 11 -3 212 1 228 0 3 58 5 129 5 105 0 128 2 133 15 4 8 2 23 -3 33 -8
15 -12 16 -26 5 -12 -10 -14 -10 -8 0 4 6 2 12 -3 12 -6 0 -11 -5 -11 -11 0
-8 -4 -8 -12 -2 -11 8 -92 10 -100 3 -10 -7 -37 -7 -32 1 3 5 0 9 -5 9 -6 0
-11 -5 -11 -11 0 -8 -6 -7 -17 2 -9 8 -14 9 -10 3 3 -6 0 -11 -8 -11 -8 0 -12
4 -9 9 3 4 2 8 -3 8 -6 0 -10 189 -4 223 0 4 61 7 135 7 l133 0 -5 25 -4 25
-157 0 c-87 0 -161 -3 -164 -7z"/>
<path d="M7075 1658 c0 -280 2 -323 15 -324 8 0 20 4 27 8 6 5 14 5 18 -2 3
-6 11 -8 16 -5 17 11 52 15 63 7 12 -8 33 -8 56 1 8 3 39 11 68 17 28 7 52 16
52 21 0 5 6 9 13 9 23 0 84 67 97 106 7 22 17 45 23 53 20 24 17 258 -3 246
-4 -3 -10 9 -14 27 -6 29 -78 113 -98 113 -5 0 -12 6 -16 12 -12 19 -103 33
-216 33 l-101 0 0 -322z m231 263 c-3 -5 12 -11 34 -15 25 -4 43 -14 50 -26 6
-11 15 -18 20 -15 5 3 11 -4 15 -15 3 -11 10 -20 15 -20 11 0 30 -65 30 -102
0 -16 6 -28 13 -29 10 0 10 -2 0 -6 -7 -2 -13 -9 -13 -14 0 -6 4 -8 9 -4 6 3
8 -4 5 -17 -7 -28 -21 -94 -28 -126 -3 -13 -16 -34 -30 -47 -14 -13 -23 -25
-20 -28 3 -3 -9 -11 -25 -18 -17 -8 -31 -17 -31 -21 0 -10 -53 -19 -139 -23
l-81 -3 0 269 0 269 91 0 c49 0 88 -4 85 -9z"/>
<path d="M3215 1030 c3 -4 -13 -10 -35 -14 -22 -3 -40 -10 -40 -15 0 -5 -13
-14 -30 -21 -16 -7 -27 -16 -24 -21 3 -5 -2 -9 -10 -9 -8 0 -17 -9 -21 -19 -3
-11 -12 -22 -20 -25 -8 -3 -17 -21 -21 -41 -4 -24 -9 -32 -14 -24 -12 18 -23
-110 -17 -187 3 -41 10 -70 18 -75 12 -7 11 -9 -1 -9 -10 0 -11 -3 -4 -8 6 -4
15 -17 18 -30 4 -12 18 -34 32 -47 13 -13 24 -29 24 -35 0 -6 4 -9 8 -6 5 3
21 -6 37 -20 16 -13 46 -27 67 -30 21 -4 36 -10 33 -14 -9 -15 131 -11 161 5
16 8 34 15 40 15 6 0 24 11 40 25 16 14 32 25 35 25 11 0 69 95 69 113 0 8 4
17 10 19 5 2 11 33 13 71 l4 67 -154 0 c-86 0 -153 -4 -153 -9 0 -38 11 -41
126 -41 l114 0 -2 -40 c-1 -23 -5 -43 -10 -46 -4 -3 -6 -10 -3 -15 4 -5 1 -9
-4 -9 -6 0 -11 -6 -11 -12 0 -16 -63 -78 -79 -78 -7 0 -10 -4 -7 -9 10 -15
-93 -34 -151 -28 -37 4 -70 15 -101 36 -26 17 -43 31 -39 31 4 0 -4 11 -18 24
-15 14 -28 31 -29 38 -8 40 -20 75 -30 87 -9 12 -8 13 4 6 13 -8 13 -7 1 9
-13 15 -13 19 0 27 9 5 10 9 2 9 -14 0 -13 40 2 40 5 0 3 5 -5 10 -10 6 -11
10 -2 10 6 0 12 8 12 17 0 24 23 83 32 83 4 0 8 5 8 11 0 16 52 65 78 73 12 4
20 11 18 15 -6 9 -3 10 90 17 58 5 74 3 87 -11 10 -9 17 -11 17 -5 0 12 9 5
61 -42 31 -29 49 -35 49 -17 0 5 4 8 9 4 5 -3 13 -1 16 5 6 9 -26 44 -77 85
-32 26 -109 46 -167 44 -33 -1 -58 -5 -56 -9z"/>
<path d="M3876 1033 c-8 -8 -26 -11 -78 -15 -39 -2 -47 -14 -25 -37 7 -8 7
-11 1 -8 -14 8 -13 -130 0 -152 6 -9 5 -12 -1 -8 -13 8 -12 -131 1 -152 6 -9
5 -12 -1 -8 -13 8 -12 -131 1 -152 6 -9 5 -12 -1 -8 -6 4 -10 -14 -10 -48 1
-55 1 -55 32 -55 l31 0 -1 125 c0 72 3 125 9 125 5 0 51 -43 103 -95 51 -52
93 -89 94 -82 0 6 4 2 9 -10 5 -13 14 -23 20 -23 6 0 8 -5 5 -10 -3 -6 1 -10
9 -10 9 0 16 -4 16 -10 0 -5 21 -10 46 -10 40 0 45 2 34 15 -7 8 -16 13 -20
10 -5 -3 -11 4 -15 15 -3 11 -11 20 -16 20 -6 0 -7 5 -3 12 4 6 3 8 -4 4 -6
-3 -17 3 -25 14 -7 11 -16 17 -19 14 -4 -3 -9 4 -13 15 -3 12 -10 21 -15 21
-9 0 -133 121 -128 125 3 2 99 14 120 15 16 0 89 79 95 101 12 49 5 153 -12
165 -8 6 -15 17 -15 23 0 7 -14 18 -30 25 -17 7 -28 15 -24 18 7 8 -78 22
-128 21 -21 -1 -35 3 -32 8 6 11 0 12 -10 2z m129 -74 c4 -5 18 -14 32 -20 13
-5 22 -13 19 -18 -3 -5 1 -14 9 -21 10 -8 15 -31 15 -68 0 -30 -3 -52 -7 -49
-4 4 -13 -7 -20 -24 -7 -17 -17 -28 -23 -24 -5 3 -10 2 -10 -4 0 -21 -189 -38
-191 -17 -1 6 -2 66 -3 134 l-1 122 87 0 c50 0 90 -4 93 -11z"/>
<path d="M5076 1031 c-3 -5 -21 -8 -40 -7 l-34 1 0 -314 c1 -252 4 -318 14
-329 8 -8 14 -9 14 -3 0 6 6 11 13 11 10 0 13 28 13 123 l-1 122 80 2 c44 1
89 4 100 6 52 11 125 60 125 83 0 7 6 14 13 17 8 2 12 30 12 89 0 67 -4 88
-17 102 -10 10 -18 22 -18 27 0 5 -6 9 -13 9 -7 0 -24 10 -37 22 -18 17 -39
22 -101 26 -54 3 -77 8 -72 16 3 6 0 5 -8 -1 -16 -15 -43 -17 -34 -3 3 6 4 10
1 10 -3 0 -7 -4 -10 -9z m159 -71 c-3 -5 1 -10 10 -10 51 0 93 -76 80 -143
-11 -56 -16 -67 -26 -62 -5 4 -9 0 -9 -8 0 -17 -50 -37 -91 -37 -16 0 -29 -5
-29 -11 0 -8 -6 -7 -17 2 -15 12 -16 12 -8 -1 7 -12 6 -13 -7 -3 -8 7 -18 10
-22 6 -10 -10 -56 -12 -50 -1 3 4 2 8 -3 8 -4 0 -8 61 -8 135 l0 135 93 0 c60
0 91 -4 87 -10z"/>
<path d="M6695 1030 c-3 -5 -14 -10 -24 -10 -9 0 -33 -11 -52 -25 -19 -14 -44
-32 -56 -41 -13 -9 -23 -23 -23 -31 0 -7 -7 -16 -15 -19 -8 -4 -15 -12 -15
-19 0 -8 -6 -20 -14 -28 -18 -18 -28 -75 -27 -155 2 -79 10 -136 22 -140 5 -2
9 -9 9 -16 0 -7 9 -23 20 -36 11 -13 20 -27 20 -31 0 -12 53 -59 61 -54 4 3 9
-2 13 -10 3 -8 23 -18 45 -21 23 -4 38 -11 35 -16 -4 -6 26 -8 74 -7 44 2 79
6 76 10 -2 4 14 10 37 14 22 4 43 13 46 21 3 8 12 14 19 14 8 0 17 7 20 15 4
8 10 13 14 10 15 -9 18 36 3 51 -16 16 -47 16 -45 -1 0 -5 -10 -16 -24 -23
-13 -7 -24 -17 -24 -22 0 -5 -17 -14 -37 -19 -72 -20 -174 -10 -208 21 -34 31
-43 36 -51 30 -4 -4 -4 -2 -1 4 4 7 0 17 -8 24 -8 7 -15 19 -15 26 0 8 -4 14
-9 14 -15 0 -30 90 -27 165 4 77 14 125 26 125 5 0 12 9 15 20 7 23 51 70 65
70 5 0 16 8 26 18 14 13 35 17 102 17 59 0 87 -4 90 -12 2 -7 9 -13 16 -13 7
0 28 -14 46 -31 28 -27 35 -30 56 -20 13 6 24 14 24 18 0 12 -16 35 -24 34 -3
-1 -5 2 -3 5 1 3 -15 13 -36 23 -20 9 -35 20 -31 24 3 3 -10 9 -30 12 -20 4
-33 11 -30 16 3 5 1 9 -5 9 -5 0 -12 -6 -14 -12 -4 -10 -6 -10 -6 0 -1 15
-117 17 -126 2z"/>
<path d="M7230 1022 c-14 -9 -26 -20 -28 -24 -2 -5 -10 -8 -17 -8 -8 0 -17 -9
-20 -20 -3 -11 -12 -26 -20 -33 -19 -20 -24 -154 -5 -142 6 3 10 -1 10 -9 0
-16 46 -71 60 -71 5 0 12 -3 16 -7 4 -5 18 -8 31 -8 13 0 22 -4 19 -8 -3 -5
19 -14 49 -21 30 -7 55 -17 55 -22 0 -5 11 -14 25 -19 14 -5 25 -16 25 -25 0
-8 5 -15 10 -15 6 0 10 -18 10 -40 0 -22 -4 -40 -10 -40 -5 0 -10 -6 -10 -12
-1 -30 -51 -61 -106 -66 -53 -4 -119 12 -109 28 3 4 -2 10 -9 13 -8 3 -16 21
-18 39 -3 29 -7 33 -35 36 -31 3 -32 3 -27 -35 3 -21 9 -39 14 -41 6 -2 10 -9
10 -16 0 -17 50 -67 60 -61 4 3 13 -2 20 -10 17 -20 128 -20 154 0 10 8 22 12
27 10 13 -9 74 64 85 102 17 59 1 128 -39 168 -19 19 -38 35 -41 35 -4 0 -22
7 -42 15 -19 8 -36 13 -38 12 -1 -1 -9 3 -17 9 -8 6 -27 14 -44 18 -16 4 -42
21 -58 38 -26 27 -29 36 -25 78 8 82 72 123 163 106 19 -4 33 -11 30 -16 -3
-5 4 -11 15 -15 13 -4 22 -19 26 -43 8 -42 18 -52 45 -45 14 4 19 14 19 39 0
19 -4 34 -9 34 -5 0 -14 14 -20 30 -6 18 -17 30 -27 30 -10 0 -15 3 -11 6 3 4
-10 15 -31 25 -46 24 -128 24 -162 1z"/>
<path d="M4562 1023 c-14 -5 -50 -79 -59 -123 -3 -17 -9 -30 -13 -30 -4 0 -12
-19 -19 -42 -7 -24 -19 -55 -27 -70 -8 -14 -14 -34 -14 -43 0 -9 -4 -14 -8
-11 -5 3 -14 -19 -21 -49 -7 -31 -16 -53 -20 -50 -5 2 -14 -22 -21 -55 -7 -33
-16 -60 -20 -60 -4 0 -13 -19 -20 -42 -7 -24 -17 -46 -24 -50 -6 -4 6 -8 26
-8 33 0 38 4 44 27 4 16 10 30 14 33 4 3 13 25 21 50 l14 45 157 3 157 3 12
-43 c7 -24 19 -52 26 -63 7 -11 13 -27 13 -37 0 -12 8 -18 23 -18 13 0 27 -4
33 -10 6 -6 10 -3 11 10 1 11 -4 20 -10 20 -7 0 -6 4 3 10 10 6 11 10 3 10 -7
0 -18 20 -24 45 -6 25 -15 45 -19 45 -4 0 -13 27 -20 60 -7 33 -16 58 -20 55
-3 -2 -12 19 -20 48 -7 29 -17 55 -22 58 -5 3 -11 12 -12 20 -14 70 -19 89
-27 89 -5 0 -12 18 -15 41 -4 22 -10 36 -14 29 -4 -6 -12 14 -19 45 -7 30 -15
55 -19 56 -4 0 -14 2 -22 3 -8 2 -21 1 -28 -1z m24 -106 c1 -7 11 -33 22 -57
11 -25 23 -60 27 -77 3 -18 10 -33 15 -33 4 0 11 -18 15 -41 4 -22 10 -38 13
-34 7 7 30 -57 25 -67 -6 -12 -251 -10 -258 2 -3 6 -2 10 4 10 8 0 23 43 22
67 0 5 7 15 14 23 8 9 20 39 26 68 7 29 15 50 18 47 2 -3 13 22 24 56 17 56
28 68 33 36z"/>
<path d="M5958 1022 c-16 -3 -18 -19 -18 -153 l0 -149 -31 0 c-21 0 -28 4 -23
13 6 10 4 10 -7 0 -7 -7 -28 -13 -47 -13 -24 0 -31 4 -26 13 6 10 4 10 -7 0
-7 -7 -19 -13 -27 -13 -8 0 -10 5 -6 13 6 9 4 9 -7 1 -8 -5 -29 -11 -48 -13
-25 -2 -31 0 -26 11 6 10 5 11 -6 1 -7 -7 -26 -13 -41 -13 -24 0 -28 4 -28 28
0 15 -6 34 -12 41 -10 11 -10 13 0 7 8 -5 12 0 12 16 0 13 -6 30 -12 37 -10
11 -10 13 0 7 8 -5 12 1 12 19 0 18 -4 24 -12 19 -10 -6 -10 -4 0 7 6 7 12 24
12 37 0 16 -4 21 -12 16 -10 -6 -10 -4 0 7 6 7 12 23 12 36 0 19 -5 23 -32 23
l-33 0 0 -315 0 -315 22 0 c13 0 26 0 31 0 9 0 10 9 11 160 l1 125 163 0 162
0 5 -145 5 -144 30 0 30 0 0 319 c0 340 2 329 -47 317z"/>
<path d="M6240 1020 c-19 -4 -30 -8 -23 -9 8 -1 11 -74 12 -268 0 -148 0 -287
0 -310 1 -39 3 -43 26 -43 l25 0 0 320 c0 176 -1 319 -2 319 -2 -1 -19 -5 -38
-9z"/>
</g>
</svg>
